<svg id="Layer_1" data-name="Layer 1" xmlns="http://www.w3.org/2000/svg" viewBox="0 0 276.32 92.31"><defs><style>.cls-1{fill:#fff;}</style></defs><path class="cls-1" d="M11,49.59q-1.38,0-3.09.15c-1.15.1-2.24.15-3.29.15a13.83,13.83,0,0,1-2.8-.25,1.82,1.82,0,0,1-1.52-1c-.39-.33-.39-.7,0-1.13s.75-.8,1.08-1.13c1.24-.13,2.32-.23,3.24-.29s1.77-.15,2.55-.25l2.26-.29c.72-.1,1.47-.21,2.26-.34q1.47-5.49,2.75-10.5t2.45-10q1.17-4.91,2.31-9.91c.75-3.34,1.55-6.83,2.4-10.5Q22.48,3.07,23.06,3a14.8,14.8,0,0,1,2,0c.39,2.09.69,3.86.88,5.3s.38,2.89.54,4.37.36,3.11.59,4.91.54,4.07.93,6.82.62,5.58,1.08,8.29.85,5.51,1.18,8.39c1.7-.26,3.34-.54,4.91-.83l4.17-.79L42.28,39c.75-.13,1.13-.16,1.13-.1.2.59-.12,1.16-.93,1.72a18.64,18.64,0,0,1-3.19,1.67c-1.31.56-2.71,1.08-4.22,1.57l-4,1.32c.13,1.24.36,2.8.69,4.66s.67,3.84,1,5.94.74,4.2,1.13,6.33.74,4.06,1,5.79.51,3.17.64,4.32.13,1.78,0,1.91a3.45,3.45,0,0,1-2.4-.34,7.28,7.28,0,0,0-1.82-.93q-.78-6.48-2-13.2c-.78-4.48-1.41-8.94-1.86-13.39-1.51.33-3.43.77-5.74,1.32S17,48.58,14.5,49c-.39,1.44-.75,3-1.08,4.81s-.65,3.45-1,5-.61,3-.83,4.32a10.68,10.68,0,0,1-.64,2.5,2.91,2.91,0,0,1-1.72.64,2.25,2.25,0,0,1-2-.64,19,19,0,0,1,.44-2.7c.29-1.41.64-3,1-4.66s.8-3.35,1.23-5S10.72,50.48,11,49.59Zm4.71-4.81,3.24-.64c1.18-.23,2.27-.47,3.29-.74s1.9-.47,2.65-.64a9.83,9.83,0,0,0,1.32-.34c-.13-1.44-.25-2.63-.34-3.58s-.2-2-.29-3-.21-2.27-.34-3.68-.33-3.32-.59-5.74c-.51-4.13-.88-7.2-1.13-9.23s-.44-2.68-.64-2q-1.38,5.3-2.4,9.17t-1.86,7.23c-.56,2.19-1.06,4.33-1.52,6.43s-.94,4.32-1.39,6.74Z" transform="translate(0 -3.01)"/><path class="cls-1" d="M54.26,37.3a18,18,0,0,1,4.07,1.08,9.27,9.27,0,0,1,2.55,1.52,7.91,7.91,0,0,1,1.47,1.69l1,1.67c-.06.26-.38.23-.93-.1s-1.1-.65-1.62-1a11.68,11.68,0,0,0-5.17-1.57,16.72,16.72,0,0,0-5.64.34,8.67,8.67,0,0,0-4.17,2.21A3.43,3.43,0,0,0,45,47a8.78,8.78,0,0,0,2.85,3.87,27.41,27.41,0,0,0,4.46,3q2.44,1.32,4.91,2.4a24.86,24.86,0,0,1,4,2.16l3.31-1.81c.92-.49,1.73-1,2.45-1.37s1.46-.82,2.21-1.18l2.6-1.23a.83.83,0,0,1,.34-.1c.1,0,.1.08,0,.25a4.22,4.22,0,0,1-.79.79c-.43.36-1.1.87-2,1.52-.46.33-1.31.88-2.55,1.67l-4,2.55a9.67,9.67,0,0,1,1.87,2.26,8.18,8.18,0,0,1,.83,2.31,3.7,3.7,0,0,1-.44,2.5,17.28,17.28,0,0,1-8.92,7.36,5.28,5.28,0,0,1-3,.1,4.8,4.8,0,0,1-2.65-1.57,3.48,3.48,0,0,1-.63-3.21,9.58,9.58,0,0,1,1.81-3.14,22.3,22.3,0,0,1,2.94-2.89c1.11-.92,2.09-1.73,2.94-2.45a14.11,14.11,0,0,0-3.43-2.4q-2.55-1.43-5.25-3.14a35.53,35.53,0,0,1-4.84-3.63,6.41,6.41,0,0,1-2.36-4,6.89,6.89,0,0,1,.54-4.17A10.09,10.09,0,0,1,45,39.89a12,12,0,0,1,4.22-2.26A11.25,11.25,0,0,1,54.26,37.3ZM53.37,71a3.16,3.16,0,0,0,2.45,0,9.52,9.52,0,0,0,2.6-1.37,12.76,12.76,0,0,0,2.16-2.06,6.88,6.88,0,0,0,1.23-2,1.67,1.67,0,0,0-.54-1.72,9.19,9.19,0,0,0-1.72-1.52,29.27,29.27,0,0,0-2.45,2,20.26,20.26,0,0,0-2.4,2.5,10.37,10.37,0,0,0-1.52,2.4C52.88,70,52.88,70.59,53.37,71Z" transform="translate(0 -3.01)"/><path class="cls-1" d="M86,39.46c.06.39-.25.78-.93,1.18s-1.55,1-2.6,1.72a28.79,28.79,0,0,0-3.43,3,17.86,17.86,0,0,0-3.34,4.91,37.35,37.35,0,0,0-2.26,5.79,10.47,10.47,0,0,0,.29,5.79,4,4,0,0,0,.83,1.23,2.55,2.55,0,0,0,1.62.64A18.93,18.93,0,0,0,80,62.59a17.83,17.83,0,0,0,3.14-1.67,34.22,34.22,0,0,0,2.84-2.11c.92-.75,1.86-1.52,2.85-2.31,1.44-1.37,2.63-2.57,3.58-3.58s1.72-1.86,2.31-2.55a9.93,9.93,0,0,1,1.52-1.52,1.43,1.43,0,0,1,1.32-.29,38.89,38.89,0,0,1-2.21,3.73,44.75,44.75,0,0,1-4.71,6,44,44,0,0,1-6.72,6,18.59,18.59,0,0,1-8.24,3.48,15.69,15.69,0,0,1-2.89-.39c-.75-.2-1.46-1-2.11-2.35a11.21,11.21,0,0,1-.88-5.94,29.24,29.24,0,0,1,1.47-6.92,34.12,34.12,0,0,1,2.94-6.38,16.89,16.89,0,0,1,3.43-4.32A11.5,11.5,0,0,1,82,39.41,10.25,10.25,0,0,1,86,39.46Z" transform="translate(0 -3.01)"/><path class="cls-1" d="M101.88,40.44l1.67-.54a3.8,3.8,0,0,1,2.26-.15,5.58,5.58,0,0,1,4.37,1.47c1,1.05,1.09,3.07.25,6.08a24.81,24.81,0,0,1-5,8.34A49.32,49.32,0,0,1,98.12,62q1,2.55,2.94,2.85a7.48,7.48,0,0,0,4.12-.64,20.4,20.4,0,0,0,4.22-2.5c1.37-1,2.49-2,3.34-2.75,1.37-1.18,2.47-2.17,3.29-3a35.38,35.38,0,0,0,2.6-3c.2-.13.31-.11.34.05a2.29,2.29,0,0,1,0,.74c-.07.33-.16.79-.29,1.37a3.92,3.92,0,0,1-.59,1.23,8.08,8.08,0,0,1-.83,1.18c-.36.43-.83.93-1.42,1.52s-1.31,1.37-2.16,2.35l-2.85,2.7a19.1,19.1,0,0,1-2.9,2.33,9.87,9.87,0,0,1-3.34,1.37,11.24,11.24,0,0,1-4.17,0,14,14,0,0,1-3.14-1.47,7.36,7.36,0,0,1-1.81-1.62,6.39,6.39,0,0,1-.93-1.52A6,6,0,0,1,94.1,62a19.64,19.64,0,0,1-.39-5.3,30.12,30.12,0,0,1,2-8.63,24.81,24.81,0,0,1,2.75-4.66A10.7,10.7,0,0,1,101.88,40.44ZM97.57,57.81a27.65,27.65,0,0,0,3-1.91,22.49,22.49,0,0,0,3.24-2.85,19.29,19.29,0,0,0,2.65-3.58,9.07,9.07,0,0,0,1.23-4.12,2.87,2.87,0,0,0-.1-2.06c-.13-.2-.26-.29-.39-.29a3.06,3.06,0,0,0-3.34.49,12.07,12.07,0,0,0-3,3.63,26.42,26.42,0,0,0-2.31,5.25,17.7,17.7,0,0,0-1,5.44Z" transform="translate(0 -3.01)"/><path class="cls-1" d="M122.15,38.28c0,1.83,0,3.66-.05,5.5s-.07,3.6-.1,5.3-.07,3.3-.1,4.81-.08,2.85-.15,4a10.38,10.38,0,0,1,.44-1.91,35.93,35.93,0,0,1,1.23-3.48c.52-1.31,1.09-2.7,1.72-4.17a27.28,27.28,0,0,1,2-3.92,12.2,12.2,0,0,1,2.21-2.7,2,2,0,0,1,2.11-.59,5.87,5.87,0,0,1,3,2.85,16.31,16.31,0,0,1,1.28,4.27q.39,2.4.79,5.35a23.76,23.76,0,0,0,1.77,6.18A4.27,4.27,0,0,0,140,61.93a8.65,8.65,0,0,0,2.16,1,8.53,8.53,0,0,0,1.67.34c.42,0,.57.15.44.34-1.64,1.24-3,1.67-4.22,1.28a5.67,5.67,0,0,1-3-2.6,18.61,18.61,0,0,1-2-4.81c-.52-1.86-1-3.66-1.42-5.4s-.8-3.2-1.13-4.42-.69-1.82-1.08-1.82c-.59.07-1.23.62-1.91,1.67a29,29,0,0,0-2.11,3.92c-.72,1.57-1.41,3.28-2.06,5.15s-1.26,3.62-1.82,5.25-1,3-1.32,4.22-.52,1.9-.59,2.16a9.22,9.22,0,0,0-1.82.1c-.23.06-.61-.26-1.13-1q.5-8.64.34-16.34t-.39-13.38c0-.59.15-.88.44-.88a1.72,1.72,0,0,1,1,.39l1.13.79A2,2,0,0,0,122.15,38.28Z" transform="translate(0 -3.01)"/><path class="cls-1" d="M178.08,16.59c-.2,1.18-.43,2.42-.69,3.73s-.54,2.55-.83,3.73l-.74,3c-.2.81-.33,1.37-.39,1.57-.39,1.11-.92,2.55-1.57,4.32s-1.42,3.62-2.31,5.54-1.88,3.86-3,5.79a33.54,33.54,0,0,1-3.43,5c0,1,.11,2.63.34,5s.51,4.82.83,7.51.64,5.32.93,7.9.47,4.59.54,6c-.33.33-.62.26-.88-.2s-.66-1.24-1.18-2.35q-.58-2.55-.93-4.71c-.23-1.44-.44-2.89-.64-4.37s-.41-3-.64-4.66-.57-3.5-1-5.59q-1.86,2.36-4.46,5.35a44.32,44.32,0,0,1-5.4,5.3,17.81,17.81,0,0,1-5.49,3.24,4.39,4.39,0,0,1-4.66-.83,5.26,5.26,0,0,1-1-3.68,12,12,0,0,1,1.18-4.32,25,25,0,0,1,2.65-4.37c1.08-1.44,2.17-2.78,3.29-4s2.16-2.32,3.14-3.24,1.7-1.57,2.16-2c.92-.59,1.68-1.06,2.31-1.42s1.18-.65,1.67-.88a6.14,6.14,0,0,1,1.52-.49,7.44,7.44,0,0,1,2,0c-.13-1.5-.21-3.3-.25-5.4s0-4.2,0-6.33.1-4.1.2-5.94a33.36,33.36,0,0,1,.44-4.22,21.77,21.77,0,0,1,.93-4.51,28.69,28.69,0,0,1,1.86-4.56,22.64,22.64,0,0,1,2.5-3.92,8.3,8.3,0,0,1,3-2.45,5.19,5.19,0,0,1,3.34-.34,6.42,6.42,0,0,1,3.38,2.45,6.3,6.3,0,0,1,1.37,4.17C178.08,13,178.08,14.77,178.08,16.59Zm-27.2,35.33A23.5,23.5,0,0,0,147,57a44.8,44.8,0,0,0-2,4.27v.93a5.11,5.11,0,0,0,.15,1.23,2.17,2.17,0,0,0,.59,1,1.51,1.51,0,0,0,1.42.25,11,11,0,0,0,1.62-.79A11.94,11.94,0,0,0,150,63l1.18-.93,1.62-1.28c.92-1,2-2.09,3.38-3.34a28.38,28.38,0,0,0,3.54-3.89,11.41,11.41,0,0,0,2-4.22,4.7,4.7,0,0,0-1.28-4.22,5.24,5.24,0,0,0-1.42.2,6.27,6.27,0,0,0-1.82.93,28.67,28.67,0,0,0-2.6,2.06C153.57,49.22,152.34,50.42,150.88,51.92Zm14.23-9.12a20.88,20.88,0,0,0,3-4.21c.79-1.47,1.68-3.22,2.65-5.25A36.58,36.58,0,0,0,173,26.59a55.45,55.45,0,0,0,1.42-8.09,30.79,30.79,0,0,0,0-6.92c-.26-2-.92-3-2-3.14a2.89,2.89,0,0,0-2.55,1,13.86,13.86,0,0,0-2.16,3,23.76,23.76,0,0,0-1.67,3.88,26.71,26.71,0,0,0-1,3.63c-.26,1.31-.44,2.49-.54,3.53s-.16,2.14-.2,3.29-.08,2.39-.15,3.73-.2,3-.39,5a28.94,28.94,0,0,0,.15,2.94,21,21,0,0,0,.39,2.5,13.88,13.88,0,0,0,.55,1.65c.09.32.18.4.25.21Z" transform="translate(0 -3.01)"/><path class="cls-1" d="M193.39,39.36c-.07.39-.21,1.21-.44,2.45s-.48,2.7-.74,4.37-.49,3.42-.69,5.25-.31,3.57-.34,5.2a20.09,20.09,0,0,0,.29,4.17c.23,1.15.6,1.85,1.13,2.11a4.16,4.16,0,0,0,4.61-.74,38.1,38.1,0,0,0,5.49-5.58c.2,0,.21.26.05.79A8.37,8.37,0,0,1,202,59.1L200.88,61a6.81,6.81,0,0,1-.83,1.23,16.28,16.28,0,0,1-2.26,2.21,13.08,13.08,0,0,1-3.14,2,6.76,6.76,0,0,1-3.19.64,3.09,3.09,0,0,1-2.5-1.77,8.92,8.92,0,0,1-.59-2.89,28.86,28.86,0,0,1,0-3.48c.06-1.18.16-2.26.29-3.24s.23-1.7.3-2.16a52.42,52.42,0,0,1-4.71,7.26,29.88,29.88,0,0,1-5.2,5.4,9,9,0,0,1-4.71,2.11c-1.44.1-2.55-.74-3.34-2.5a12.11,12.11,0,0,1,0-5.74,22.12,22.12,0,0,1,2.06-5.74,62.36,62.36,0,0,1,4.32-6.48,29.19,29.19,0,0,1,4.81-5,17.22,17.22,0,0,1,5.35-3A12,12,0,0,1,193.39,39.36ZM174.94,64.29c.65.13,1.7-.36,3.14-1.47a26.53,26.53,0,0,0,4.51-4.66,37.66,37.66,0,0,0,4.27-7,27.45,27.45,0,0,0,2.5-8.39h-1.13a3.51,3.51,0,0,0-1.72.59,27.9,27.9,0,0,0-6.38,5.74A32.5,32.5,0,0,0,176,55.48,18.31,18.31,0,0,0,174.24,61C174.06,62.68,174.29,63.76,174.94,64.29Z" transform="translate(0 -3.01)"/><path class="cls-1" d="M205.65,38.28c0,1.83,0,3.66-.05,5.5s-.07,3.6-.1,5.3-.07,3.3-.1,4.81-.08,2.85-.15,4a10.38,10.38,0,0,1,.44-1.91,35.3,35.3,0,0,1,1.19-3.46c.52-1.31,1.09-2.7,1.72-4.17a27.28,27.28,0,0,1,2-3.92,12.2,12.2,0,0,1,2.21-2.7,2,2,0,0,1,2.11-.59,5.87,5.87,0,0,1,3,2.85,16.31,16.31,0,0,1,1.28,4.27q.39,2.4.79,5.35a23.78,23.78,0,0,0,1.89,6.18A4.27,4.27,0,0,0,223.6,62a8.65,8.65,0,0,0,2.16,1,8.53,8.53,0,0,0,1.67.34c.42,0,.57.15.44.34-1.64,1.24-3,1.67-4.22,1.28a5.67,5.67,0,0,1-3-2.6,18.61,18.61,0,0,1-2-4.81c-.52-1.86-1-3.66-1.42-5.4s-.8-3.2-1.13-4.42-.69-1.82-1.08-1.82c-.59.07-1.23.62-1.91,1.67A29,29,0,0,0,211,51.45a52.55,52.55,0,0,0-2.12,5.14c-.65,1.86-1.26,3.62-1.82,5.25s-1,3-1.32,4.22-.52,1.9-.59,2.16a9.22,9.22,0,0,0-1.82.1c-.23.06-.61-.26-1.13-1q.5-8.64.34-16.34t-.41-13.39c0-.59.15-.88.44-.88a1.72,1.72,0,0,1,1,.39l1.13.79A2,2,0,0,0,205.65,38.28Z" transform="translate(0 -3.01)"/><path class="cls-1" d="M243.33,39.46c.06.39-.25.78-.93,1.18s-1.55,1-2.6,1.72a28.79,28.79,0,0,0-3.43,3A17.86,17.86,0,0,0,233,50.27a37.35,37.35,0,0,0-2.26,5.79,10.47,10.47,0,0,0,.29,5.79,4,4,0,0,0,.83,1.23,2.55,2.55,0,0,0,1.62.64,18.93,18.93,0,0,0,3.83-1.13,17.83,17.83,0,0,0,3.14-1.67,34.22,34.22,0,0,0,2.84-2.11c.92-.75,1.86-1.52,2.85-2.31,1.44-1.37,2.63-2.57,3.58-3.58s1.72-1.86,2.31-2.55a9.93,9.93,0,0,1,1.52-1.52,1.42,1.42,0,0,1,1.3-.26,38.89,38.89,0,0,1-2.21,3.73,44.75,44.75,0,0,1-4.71,6,44,44,0,0,1-6.72,6A18.59,18.59,0,0,1,233,67.8a15.69,15.69,0,0,1-2.89-.39c-.75-.2-1.46-1-2.11-2.35a11.21,11.21,0,0,1-.88-5.94,29.24,29.24,0,0,1,1.47-6.92,34.12,34.12,0,0,1,2.94-6.38A16.89,16.89,0,0,1,235,41.5a11.5,11.5,0,0,1,4.37-2.06A10.16,10.16,0,0,1,243.33,39.46Z" transform="translate(0 -3.01)"/><path class="cls-1" d="M259.22,40.44l1.67-.54a3.8,3.8,0,0,1,2.26-.15,5.58,5.58,0,0,1,4.37,1.47c1,1.05,1.09,3.07.25,6.08a24.81,24.81,0,0,1-5,8.34A49.32,49.32,0,0,1,255.46,62q1,2.55,2.94,2.85a7.48,7.48,0,0,0,4.12-.64,20.4,20.4,0,0,0,4.22-2.5c1.37-1,2.49-2,3.34-2.75,1.37-1.18,2.47-2.17,3.29-3a35.38,35.38,0,0,0,2.6-3c.2-.13.31-.11.34.05a2.29,2.29,0,0,1-.05.74c-.07.33-.16.79-.29,1.37a3.92,3.92,0,0,1-.59,1.23,8.08,8.08,0,0,1-.83,1.18c-.36.43-.83.93-1.42,1.52s-1.31,1.37-2.16,2.35l-2.85,2.7a20.05,20.05,0,0,1-2.89,2.31,9.87,9.87,0,0,1-3.34,1.37,11.24,11.24,0,0,1-4.17,0,14,14,0,0,1-3.14-1.47,7.36,7.36,0,0,1-1.81-1.62,6.39,6.39,0,0,1-.93-1.52,6,6,0,0,1-.39-1.18,19.64,19.64,0,0,1-.39-5.3,30.12,30.12,0,0,1,2-8.63,24.81,24.81,0,0,1,2.75-4.66A10.84,10.84,0,0,1,259.22,40.44Zm-4.34,17.37a27.65,27.65,0,0,0,3-1.91,22.49,22.49,0,0,0,3.24-2.85,19.29,19.29,0,0,0,2.65-3.58A9.07,9.07,0,0,0,265,45.35a2.87,2.87,0,0,0-.1-2.06c-.13-.2-.26-.29-.39-.29a3.06,3.06,0,0,0-3.34.49,12.07,12.07,0,0,0-3,3.63,26.35,26.35,0,0,0-2.29,5.25A18,18,0,0,0,254.88,57.81Z" transform="translate(0 -3.01)"/><path class="cls-1" d="M7.72,92.86a6.51,6.51,0,0,0,3.28.92c1.87,0,3-1,3-2.42s-.76-2.08-2.67-2.81c-2.31-.82-3.74-2-3.74-4,0-2.2,1.83-3.84,4.58-3.84a6.54,6.54,0,0,1,3.13.69l-.5,1.49a5.73,5.73,0,0,0-2.69-.67c-1.93,0-2.67,1.16-2.67,2.12,0,1.32.86,2,2.81,2.73,2.39.92,3.61,2.08,3.61,4.16s-1.62,4.07-5,4.07a7.46,7.46,0,0,1-3.61-.9Z" transform="translate(0 -3.01)"/><path class="cls-1" d="M57.58,82.49h-4.3V80.94H63.76v1.55H59.43v12.6H57.58Z" transform="translate(0 -3.01)"/><path class="cls-1" d="M103.71,80.94v8.38c0,3.17,1.41,4.51,3.3,4.51,2.1,0,3.44-1.39,3.44-4.51V80.94h1.85v8.25c0,4.35-2.29,6.13-5.35,6.13-2.9,0-5.08-1.66-5.08-6V80.94Z" transform="translate(0 -3.01)"/><path class="cls-1" d="M152,81.13a26.46,26.46,0,0,1,3.88-.29c2.62,0,4.49.61,5.73,1.76a6.51,6.51,0,0,1,2,5.08,7.45,7.45,0,0,1-2,5.5c-1.32,1.32-3.51,2-6.26,2a28.29,28.29,0,0,1-3.32-.17V81.13Zm1.84,12.51a12.68,12.68,0,0,0,1.85.11c3.9,0,6-2.18,6-6,0-3.34-1.87-5.46-5.73-5.46a10.21,10.21,0,0,0-2.14.19V93.64Z" transform="translate(0 -3.01)"/><path class="cls-1" d="M204.41,80.94V95.09h-1.83V80.94Z" transform="translate(0 -3.01)"/><path class="cls-1" d="M256.26,87.87c0,4.87-3,7.45-6.57,7.45s-6.36-2.9-6.36-7.18c0-4.49,2.79-7.43,6.57-7.43S256.26,83.67,256.26,87.87Zm-11,.23c0,3,1.64,5.73,4.51,5.73s4.54-2.67,4.54-5.88c0-2.81-1.47-5.75-4.51-5.75s-4.53,2.79-4.53,5.9Z" transform="translate(0 -3.01)"/></svg>